<?xml version="1.0" encoding="utf-8"?>
<!-- Generator: Adobe Illustrator 21.1.0, SVG Export Plug-In . SVG Version: 6.00 Build 0)  -->
<svg version="1.1" id="Layer_1" xmlns="http://www.w3.org/2000/svg" xmlns:xlink="http://www.w3.org/1999/xlink" x="0px" y="0px"
	 viewBox="0 0 3.9 5.5" style="enable-background:new 0 0 3.9 5.5;" xml:space="preserve">
<style type="text/css">
	.st0{fill:#FFFFFF;}
</style>
<path class="st0" d="M2.2,5.5c0.6,0,1.7-0.2,1.7-1.6c0-0.9,0-0.9,0-1.1c0-0.2-0.1-0.4-0.4-0.4c-0.1,0-0.3,0.1-0.3,0.1V2.3
	c0,0,0-0.3-0.4-0.3C2.6,2,2.5,2.2,2.5,2.2s0.1-0.5-0.4-0.5c-0.3,0-0.4,0.2-0.4,0.2V0.5c0-0.2-0.1-0.4-0.4-0.4C1.1,0.1,1,0.2,1,0.4V3
	c0,0-0.1-0.3-0.2-0.5C0.7,2.3,0.5,2,0.2,2.1C0,2.1,0,2.3,0.1,2.6c0,0.1,0.1,0.4,0.2,0.6C0.3,3.4,0.6,5.4,2.2,5.5"/>
</svg>
