<?xml version="1.0" encoding="utf-8"?>
<!-- Generator: Adobe Illustrator 21.1.0, SVG Export Plug-In . SVG Version: 6.00 Build 0)  -->
<svg version="1.1" id="Layer_1" xmlns="http://www.w3.org/2000/svg" xmlns:xlink="http://www.w3.org/1999/xlink" x="0px" y="0px"
	 viewBox="0 0 344 276.5" style="enable-background:new 0 0 344 276.5;" xml:space="preserve">
<style type="text/css">
	.st0{fill:#FFFFFF;}
	.st1{clip-path:url(#SVGID_2_);}
	.st2{fill:none;stroke:#000000;stroke-width:3;stroke-miterlimit:10;}
	.st3{clip-path:url(#SVGID_4_);}
	.st4{fill:#FFFFFF;stroke:#000000;stroke-width:30;stroke-miterlimit:10;}
	.st5{stroke:#FFFFFF;stroke-width:8;stroke-miterlimit:10;}
</style>
<g>
	<path class="st0" d="M233.7,68.8c-12.8-17.4-30.2-31.6-51.4-40.7C119.6,1.6,47.1,30.8,20.6,93.7c-17.5,41.5-10.7,87.1,14,121
		c12.8,17.4,30.2,31.6,51.4,40.7c62.7,26.6,135.1-2.7,161.7-65.5C265.3,148.4,258.5,102.7,233.7,68.8L233.7,68.8z"/>
</g>
<g>
	<g>
		<defs>
			<path id="SVGID_1_" d="M233.7,68.8c-12.8-17.4-30.2-31.6-51.4-40.7C119.6,1.6,47.1,30.8,20.6,93.7c-17.5,41.5-10.7,87.1,14,121
				c12.8,17.4,30.2,31.6,51.4,40.7c62.7,26.6,135.1-2.7,161.7-65.5C265.3,148.4,258.5,102.7,233.7,68.8L233.7,68.8z"/>
		</defs>
		<clipPath id="SVGID_2_">
			<use xlink:href="#SVGID_1_"  style="overflow:visible;"/>
		</clipPath>
		<g class="st1">
			<path class="st2" d="M268,199c18.6-44.3-26.2-105.9-100.2-137.5S18.9,40.1,0.2,84.5"/>
			<path class="st2" d="M268,199c6.2-14.8-48.7-52.4-122.7-84S6.4,69.7,0.2,84.5"/>
			<path class="st2" d="M268,199c-6.2,14.8-71.2,1.1-145.2-30.5S-6,99.3,0.2,84.5"/>
			<path class="st2" d="M268,199c-18.6,44.3-93.7,54.7-167.6,23.1S-18.4,128.8,0.2,84.5"/>
		</g>
	</g>
	<g>
		<defs>
			<path id="SVGID_3_" d="M233.7,68.8c-12.8-17.4-30.2-31.6-51.4-40.7C119.6,1.6,47.1,30.8,20.6,93.7c-17.5,41.5-10.7,87.1,14,121
				c12.8,17.4,30.2,31.6,51.4,40.7c62.7,26.6,135.1-2.7,161.7-65.5C265.3,148.4,258.5,102.7,233.7,68.8L233.7,68.8z"/>
		</defs>
		<clipPath id="SVGID_4_">
			<use xlink:href="#SVGID_3_"  style="overflow:visible;"/>
		</clipPath>
		<g class="st3">
			<g>
				<path class="st2" d="M74.8,281.7c46.3,19.7,110.5-27.1,143.3-104.4S239.8,21.4,193.5,1.8"/>
				<path class="st2" d="M74.8,281.7c15.5,6.6,54.6-50.8,87.3-128.1S208.9,8.2,193.5,1.7"/>
				<path class="st2" d="M74.8,281.7c-15.5-6.6-1.5-74.5,31.3-151.9S178-4.7,193.5,1.8"/>
				<path class="st2" d="M74.8,281.7C28.5,262,17.4,183.5,50.2,106.2S147.1-17.9,193.5,1.8"/>
			</g>
		</g>
		<use xlink:href="#SVGID_3_"  style="overflow:visible;fill:none;stroke:#FFFFFF;stroke-width:6;stroke-miterlimit:10;"/>
	</g>
</g>
<path class="st4" d="M318.5,80c0,0-36-39.8-80.5-39.8S157.5,80,157.5,80s36,39.8,80.5,39.8S318.5,80,318.5,80z"/>
<path class="st5" d="M318.5,80c0,0-36-39.8-80.5-39.8S157.5,80,157.5,80s36,39.8,80.5,39.8S318.5,80,318.5,80z"/>
<circle class="st0" cx="240" cy="80" r="39"/>
<circle cx="240" cy="80" r="13.5"/>
</svg>
