<?xml version="1.0" encoding="utf-8"?>
<!-- Generator: Adobe Illustrator 21.1.0, SVG Export Plug-In . SVG Version: 6.00 Build 0)  -->
<svg version="1.1" id="Layer_1" xmlns="http://www.w3.org/2000/svg" xmlns:xlink="http://www.w3.org/1999/xlink" x="0px" y="0px"
	 viewBox="0 0 352.8 266.5" style="enable-background:new 0 0 352.8 266.5;" xml:space="preserve">
<style type="text/css">
	.st0{clip-path:url(#SVGID_2_);}
	.st1{fill:none;stroke:#000000;stroke-width:3;stroke-miterlimit:10;}
	.st2{fill:#FFFFFF;}
</style>
<g>
	<path d="M200.4,75.1c10.5,14.3,17.1,31.2,19.4,48.7c2.3,18.1-0.3,36.6-7.5,53.5c-10.9,25.6-31,45.5-56.9,56
		c-25.8,10.5-54.1,10.2-79.8-0.6c-17.4-7.4-32.4-19.2-43.5-34.4c-10.5-14.3-17.1-31.2-19.4-48.7c-2.3-18.1,0.3-36.6,7.5-53.5
		c10.9-25.6,31-45.5,56.9-56c25.8-10.5,54.1-10.2,79.8,0.6C174.3,48.1,189.4,60,200.4,75.1 M204.4,72.2c-11.3-15.4-26.7-28-45.5-36
		c-55.5-23.5-119.6,2.4-143.1,58c-15.5,36.7-9.5,77.1,12.4,107.1c11.3,15.4,26.7,28,45.5,36c55.5,23.5,119.6-2.4,143.1-58
		C232.4,142.6,226.4,102.2,204.4,72.2L204.4,72.2z"/>
</g>
<g>
	<defs>
		<path id="SVGID_1_" d="M204.4,72.2c-11.3-15.4-26.7-28-45.5-36c-55.5-23.5-119.6,2.4-143.1,58c-15.5,36.7-9.5,77.1,12.4,107.1
			c11.3,15.4,26.7,28,45.5,36c55.5,23.5,119.6-2.4,143.1-58C232.4,142.6,226.4,102.2,204.4,72.2L204.4,72.2z"/>
	</defs>
	<clipPath id="SVGID_2_">
		<use xlink:href="#SVGID_1_"  style="overflow:visible;"/>
	</clipPath>
	<g class="st0">
		<path class="st1" d="M234.8,187.4c16.5-39.2-23.2-93.7-88.7-121.7S14.3,46.8-2.2,86.1"/>
		<path class="st1" d="M234.8,187.4c5.5-13.1-43.1-46.4-108.6-74.3S3.3,73-2.2,86.1"/>
		<path class="st1" d="M234.8,187.4c-5.5,13.1-63,1-128.5-27S-7.7,99.2-2.2,86.1"/>
		<path class="st1" d="M234.8,187.4c-16.5,39.2-82.9,48.4-148.3,20.4S-18.7,125.3-2.2,86.1"/>
	</g>
	<g class="st0">
		<g>
			<path class="st1" d="M63.8,260.6c41,17.4,97.8-24,126.8-92.4s19.2-138-21.8-155.3"/>
			<path class="st1" d="M63.8,260.6c13.7,5.8,48.3-45,77.3-113.4s41.4-128.6,27.7-134.4"/>
			<path class="st1" d="M63.8,260.6c-13.7-5.8-1.3-65.9,27.7-134.4S155.1,7.1,168.8,12.9"/>
			<path class="st1" d="M63.8,260.6C22.8,243.2,13,173.7,42,105.3S127.8-4.5,168.8,12.9"/>
		</g>
	</g>
</g>
<polygon class="st2" points="18.3,248.8 240.1,156.1 277.1,81.9 161.9,30.9 "/>
<line class="st1" x1="168.9" y1="21.2" x2="31.7" y2="228.4"/>
<line class="st1" x1="41.2" y1="239.2" x2="250.8" y2="152"/>
<g>
	<path d="M178.2,133.7c-5.4,0-10.1-0.9-14.1-2.7c-4-1.8-7.5-4.5-10.4-8.1l8.6-7.7c2.1,2.6,4.5,4.4,7.3,5.7c2.7,1.2,5.4,1.8,8,1.8
		c3.6,0,6.3-0.8,8.1-2.3c1.8-1.5,2.7-3.7,2.7-6.5c0-3.5-1.3-5.9-3.8-7.3c-2.5-1.3-6.3-2-11.3-2h-3.1V94.6h3.4c2.9,0,5.2-0.2,7-0.7
		c1.8-0.5,3.1-1,4.1-1.7c1-0.7,1.6-1.5,2-2.5c0.3-1,0.5-2,0.5-3c0-2.1-0.7-3.8-2-5.1c-1.3-1.3-3.7-1.9-7.1-1.9
		c-2.3,0-4.7,0.4-7.1,1.3c-2.4,0.9-4.8,2.4-7.1,4.6l-7.6-8.7c2.8-2.7,6.3-4.8,10.5-6.3c4.1-1.5,8.4-2.2,12.9-2.2
		c6.9,0,12.1,1.4,15.7,4.2c3.6,2.8,5.4,6.7,5.4,11.9c0,3.7-1.1,6.8-3.1,9.4c-2.1,2.6-5.2,4.3-9.2,5.2c4.8,0.8,8.3,2.6,10.8,5.4
		c2.4,2.8,3.6,6.2,3.6,10.2c0,2.9-0.6,5.6-1.8,8c-1.2,2.4-2.9,4.3-5,6c-2.2,1.6-4.8,2.8-7.8,3.7
		C185.2,133.3,181.9,133.7,178.2,133.7z"/>
	<path d="M233.1,133.7c-3.7,0-7.2-0.7-10.3-2c-3.1-1.4-5.9-3.4-8.1-6c-2.3-2.7-4-6-5.3-9.9c-1.3-3.9-1.9-8.4-1.9-13.6
		c0-6,0.8-11.2,2.5-15.4c1.6-4.3,3.8-7.8,6.4-10.5c2.6-2.7,5.6-4.7,8.9-6c3.3-1.2,6.6-1.9,9.9-1.9c2.4,0,4.5,0.2,6.3,0.5
		c1.8,0.3,3.5,0.7,5,1.2c1.5,0.5,2.8,1,3.9,1.7c1.1,0.6,2.1,1.3,3.1,2l-5.9,9.4c-1.8-1.2-3.6-2.2-5.4-2.8c-1.8-0.6-3.9-0.9-6.4-0.9
		c-4.1,0-7.5,1.6-10.1,4.8c-2.7,3.2-4.2,7.7-4.7,13.5c2.2-1.7,4.6-3.1,7.2-4.1c2.6-1,5.4-1.6,8.5-1.6c2.8,0,5.4,0.4,7.9,1.1
		c2.5,0.8,4.6,2,6.5,3.6c1.8,1.6,3.3,3.7,4.4,6.2c1.1,2.5,1.6,5.5,1.6,9.1c0,3.3-0.6,6.3-1.7,8.9c-1.2,2.7-2.8,4.9-4.8,6.8
		c-2.1,1.9-4.6,3.4-7.5,4.4C240,133.2,236.7,133.7,233.1,133.7z M233.7,123.2c1.7,0,3.2-0.3,4.5-0.9c1.3-0.6,2.3-1.4,3.2-2.3
		c0.9-1,1.5-2.1,2-3.4c0.5-1.3,0.7-2.7,0.7-4.1c0-1.3-0.2-2.6-0.5-3.8c-0.3-1.2-0.9-2.4-1.7-3.3c-0.8-1-1.8-1.7-3.1-2.3
		c-1.3-0.6-2.9-0.9-4.8-0.9c-2.7,0-5.1,0.5-7.3,1.4c-2.1,1-4,2.2-5.7,3.8c0.3,5.3,1.6,9.3,3.7,11.9
		C226.9,121.9,229.9,123.2,233.7,123.2z"/>
	<path d="M287.6,133.7c-4.1,0-7.8-0.8-11.1-2.3s-6-3.8-8.2-6.6c-2.2-2.9-4-6.3-5.1-10.3c-1.2-4-1.8-8.5-1.8-13.4s0.6-9.4,1.8-13.4
		c1.2-4,2.9-7.4,5.1-10.3c2.2-2.9,5-5.1,8.2-6.6c3.2-1.6,6.9-2.3,11.1-2.3c4.1,0,7.8,0.8,11.1,2.3c3.2,1.6,6,3.8,8.2,6.6
		c2.2,2.9,3.9,6.3,5.1,10.3c1.2,4,1.7,8.5,1.7,13.4s-0.6,9.4-1.7,13.4c-1.2,4-2.9,7.4-5.1,10.3c-2.2,2.9-5,5.1-8.2,6.6
		S291.7,133.7,287.6,133.7z M287.6,122.9c4.1,0,7.2-1.8,9.3-5.5c2.1-3.7,3.1-9.1,3.1-16.4c0-7.3-1.1-12.7-3.2-16.2
		c-2.2-3.6-5.2-5.4-9.2-5.4c-8.3,0-12.4,7.2-12.4,21.6c0,7.3,1.1,12.7,3.2,16.4C280.5,121.1,283.6,122.9,287.6,122.9z"/>
	<path d="M333.1,95.8c-2,0-3.8-0.3-5.5-1c-1.7-0.7-3.2-1.6-4.4-2.8s-2.2-2.6-2.9-4.3c-0.7-1.7-1-3.5-1-5.5c0-2,0.3-3.8,1-5.5
		c0.7-1.7,1.6-3.1,2.9-4.3s2.7-2.1,4.4-2.8c1.7-0.7,3.5-1,5.5-1c2,0,3.8,0.3,5.5,1c1.7,0.7,3.1,1.6,4.4,2.8c1.2,1.2,2.2,2.6,2.9,4.3
		c0.7,1.6,1,3.5,1,5.4c0,2-0.3,3.8-1,5.5c-0.7,1.7-1.6,3.1-2.9,4.3c-1.2,1.2-2.7,2.2-4.4,2.8C337,95.4,335.1,95.8,333.1,95.8z
		 M333.1,89.3c1.9,0,3.5-0.7,4.7-2c1.2-1.3,1.8-3.1,1.8-5.2c0-2.2-0.6-3.9-1.8-5.1c-1.2-1.3-2.8-1.9-4.7-1.9c-2,0-3.6,0.6-4.8,1.9
		c-1.2,1.3-1.8,3-1.8,5.1c0,2.2,0.6,3.9,1.8,5.2C329.6,88.7,331.2,89.3,333.1,89.3z"/>
</g>
</svg>
