<?xml version="1.0" encoding="utf-8"?>
<!-- Generator: Adobe Illustrator 20.0.0, SVG Export Plug-In . SVG Version: 6.00 Build 0)  -->
<svg version="1.1" id="Layer_1" xmlns="http://www.w3.org/2000/svg" xmlns:xlink="http://www.w3.org/1999/xlink" x="0px" y="0px"
	 viewBox="0 0 100 100" style="enable-background:new 0 0 100 100;" xml:space="preserve">
<style type="text/css">
</style>
<g>
	<g>
		<path class="fill-yellow" d="M96,4v92H4V4H96 M100,0H0v100h100V0L100,0z"/>
	</g>
</g>
<g>
	<g>
		<path class="outline-black" d="M47.5,25.4c-1.4,1.5-1.9,3.3-1.8,10.6v43.4H44l-22.1-48v31.9c-0.2,7.8,0.4,9.4,1.2,10.6c0.8,1.3,4,4,7.4,4.2v0.8H11.6
			v-0.8c2.5,0,5.5-2.3,6.8-3.7c1-1,1.9-2,1.8-10.8V33.3c0-3.5,0.1-5.9-1.4-7.7l-0.2-0.2c-1.3-1.6-4.4-3.4-8-3.5V21h12.8l20.5,44.6
			V36.4c0.1-3.9-0.1-6.2-0.3-7.9c-0.4-2.3-1.3-3.1-2-3.8c-2.2-2.2-5.4-2.8-6.2-2.9V21h18.8v0.8C51.7,22,49.2,23.5,47.5,25.4z"/>
	</g>
	<g>
		<path class="outline-black" d="M89.4,36.1C89.5,47.4,81.2,53,73,52.8h-4.7v20c0,1.9,0.3,2.1,1.8,2.9c1.4,0.8,4.7,2.2,6.4,2.4v0.8H54.3v-0.8
			c1.4-0.2,4.9-1.8,6.2-2.4c1.4-0.8,2.1-0.8,2-2.8V27.3c0-1.9-0.3-2.3-1.6-3c-1.2-0.6-4.5-2.2-6.6-2.4V21h19.9
			C83.7,21.4,89.3,27.2,89.4,36.1z M71.5,22.5h-3.3v28.8h3.3c9.6,0.2,11.7-7,11.6-14.4C83.1,27.6,80.2,22.6,71.5,22.5z"/>
	</g>
</g>
</svg>
