<?xml version="1.0" encoding="utf-8"?>
<!-- Generator: Adobe Illustrator 21.1.0, SVG Export Plug-In . SVG Version: 6.00 Build 0)  -->
<svg version="1.1" id="Layer_1" xmlns="http://www.w3.org/2000/svg" xmlns:xlink="http://www.w3.org/1999/xlink" x="0px" y="0px"
	 viewBox="0 0 846 110.7" style="enable-background:new 0 0 846 110.7;" xml:space="preserve">
<g>
	<g>
		<path d="M550.9,78.3l-1.3,30.4h-43.2h-19.1v-1.5c1.3,0,5.2-1.3,11-4.2c2.7-1.3,3.5-2.1,3.5-4.9c0-85.6,0-85.6,0-85.6
			c0-2.8-0.8-3.5-3.5-4.9c-5.9-2.9-10.3-4.2-11.6-4.2V2h41v1.5c-1.1,0-5.2,1-11.6,4.2c-2.7,1.3-3.5,2.1-3.5,4.9v79
			c0,13.1,0.7,14,10.7,14.2l7.2,0c6.4,0.1,8.5-0.8,9.6-3.4c4.6-10.9,8.5-20.1,8.9-24.1H550.9z"/>
		<path d="M411.5,3.5c-3.2,0.1-7.8,2-11.8,6.1c-2.4,2.5-3.9,4.8-3.9,17.4v82.6h-3.1l-40.7-88.5v62.3c0,12.6,0.8,14.9,3.6,17.7
			c3.3,3.3,7.7,5.6,12.1,6v1.5H333v-1.5c3.8-0.3,7.2-2.1,11.8-6.1c2.6-2.3,3.9-4.8,3.9-17.4V21.7c0-5.9-0.4-8.4-2.5-11.1
			c-2.8-3.6-8.9-7-15.2-7V2h23.7l37.8,82.2v-57c0-12.6-1-14.7-3.6-17.7c-3.1-3.5-8.2-5.6-12.1-6V2h34.7V3.5z"/>
		<path d="M257.2,108.7h-41v-1.5c1.3,0,5.7-1.7,11.6-4.6c2.7-1.3,3.5-1.7,3.5-4.5V12.5c0-2.8-0.8-3.5-3.5-4.9
			c-5.9-2.9-10.3-4.2-11.6-4.2V2h41v1.5c-1.1,0-5.2,1-11.6,4.2c-2.7,1.3-3.5,2.1-3.5,4.9v85.6c0,2.8,0.8,3.5,3.5,4.9
			c6.4,3.2,10.5,4.2,11.6,4.2V108.7z"/>
		<path d="M208.1,30.1h-1.5c-0.3-4.7-5-16.9-8.1-22.6c-1.1-2.1-3.3-2.8-8.5-2.8h-7v93.4c0,2.8,0.8,3.5,3.5,4.9
			c6.4,3.2,10.5,4.2,11.6,4.2v1.5h-41v-1.5c1.3,0,5.7-1.3,11.6-4.2c2.7-1.3,3.5-2.1,3.5-4.9V4.7h-7c-5.2,0-7.4,0.7-8.5,2.8
			c-3.1,5.7-7.7,17.8-8.1,22.6h-1.5V2h61V30.1z"/>
		<path d="M80.4,3.5c-3.2,0.1-7.8,1.9-11.8,6.1c-2.4,2.5-3.9,4.8-3.9,17.4v82.6h-3.1L20.9,21.2v62.3c0,12.6,0.8,14.9,3.6,17.7
			c3.3,3.3,7.7,5.6,12.1,6v1.5H2v-1.5c3.8-0.3,7.2-2.1,11.8-6.1c2.6-2.3,3.9-4.8,3.9-17.4V21.7c0-5.9-0.4-8.4-2.5-11.1
			C12.4,7,6.3,3.6,0,3.6V1.9h23.7l37.8,82.2v-57c0-12.6-1-14.7-3.6-17.7c-3.1-3.5-8.2-5.6-12.1-6V2h34.7V3.5z"/>
		<path d="M483.6,108.7h-38.2v-1.5c1.4,0,5.6-1.1,12-4.7c1.4-0.8,2.1-2,2.1-3.1s-0.3-2.3-0.6-3.5l-5.2-21.7h-25.9L424.4,90
			c-0.6,2.8-0.8,5.3-0.8,6.7c0,2.4,1.5,4.6,3.8,6.4c3.8,2.9,6.4,4,8.5,4v1.5h-31.6v-1.5c2.5,0,6.9-2.4,10.9-6.1
			c2.8-2.6,4.2-6.2,5.3-10.7l22.2-89.6h4l23.3,95.6c0.8,3.2,1.5,4.6,3.3,5.7c6,3.5,9.3,5.2,10.5,5.2V108.7z M453.4,71.3l-12.7-52.3
			l-12.3,52.3H453.4z"/>
		<path d="M326.7,54.5c0,19.6-4.2,56.2-30.4,56.2c-25.4,0-29.8-35.8-29.8-54.3c0-20.6,4-56.3,30-56.3C321.7,0,326.7,35.4,326.7,54.5
			z M314.3,54.9c0-25.4-2.9-52.8-17.8-52.8c-14.9,0-17.6,26.6-17.6,53.4c0,25.9,2.9,53.1,17.6,53.1C311,108.6,314.3,82.4,314.3,54.9
			z"/>
		<path d="M150.8,108.7H112v-1.5c1.4,0,5.3-1.1,12-4.7c1.4-0.8,2.1-2,2.1-3.1s-0.3-2.3-0.6-3.5l-5.2-21.7H94.5L91,90
			c-0.6,2.8-0.8,5.3-0.8,6.7c0,2.4,1.5,4.6,3.8,6.4c3.8,2.9,6.4,4,8.5,4v1.5H70.8v-1.5c2.5,0,6.9-2.4,10.9-6.1
			c2.8-2.6,4.2-6.2,5.3-10.7l22.2-89.6h4l23.3,95.6c0.8,3.2,1.5,4.6,3.3,5.7c6,3.5,9.9,5.2,11,5.2V108.7z M120,71.3l-12.7-52.3
			L95,71.3H120z"/>
	</g>
	<path d="M567.8,108.7"/>
	<g>
		<path d="M580.2,108.8"/>
		<path d="M775.7,85.2c0,17.8-10.7,25.5-24.2,25.5c-8.4,0-13.4-5.3-16.4-9.3l-5.2,7.4h-1.7l-0.7-34.4h1.8c0.8,4.7,3.4,12.6,5.3,17.4
			c4.4,11.2,8.9,16.9,16.7,16.9c9.2,0,13.9-9.9,13.9-19c0-12.8-8.4-22.9-18.4-32.6c-9.9-9.7-19.5-19.7-19.5-34.1
			c0-15.6,10.7-22.9,22-22.9c8.8,0,12.7,3.9,15.3,7.1l4.5-5.2h1.4v30.7H769c-0.4-3.8-3.2-11.7-4.9-16.3c-3.8-10-7.1-14.2-14.5-14.2
			c-7.9,0-12.3,6.7-12.3,17c0,11,8.5,19.9,17.8,29.1C765.5,58.6,775.7,70.6,775.7,85.2z"/>
		<path d="M716,54.6c0,19.6-4.2,56.2-30.4,56.2c-25.4,0-29.8-35.8-29.8-54.3c0-20.6,4-56.3,30-56.3C711,0.1,716,35.5,716,54.6z
			 M703.6,55c0-25.4-2.4-52.8-17.8-52.8c-15,0-17.6,24.5-17.6,53.4c0,27.7,2.9,53.1,17.6,53.1C700.2,108.7,703.6,84,703.6,55z"/>
		<path d="M648.7,30.6c0,19.9-14.6,30.1-29.3,30.1h-9.8v37.5c0,2.8,0.8,3.5,3.5,4.9c6.4,3.2,10.5,4.2,11.6,4.2v1.5h-41v-1.5
			c1.3,0,5.7-1.7,11.6-4.6c2.7-1.3,3.5-1.7,3.5-4.5c0-85.6,0-85.6,0-85.6c0-2.8-0.8-3.5-3.5-4.9c-5.9-2.9-10.3-4.2-11.6-4.2V2.1
			h35.1C635.6,2.1,648.7,11.3,648.7,30.6z M637.2,32.4c0-19.2-5.9-27.6-22-27.6h-5.4v53.1h7.1C630.3,57.9,637.2,48.9,637.2,32.4z"/>
		<path d="M844.1,30.2h-1.5c-0.3-4.7-5-16.9-8.1-22.6c-1.1-2.1-3.3-2.8-8.5-2.8h-7v93.4c0,2.8,0.8,3.5,3.5,4.9
			c6.4,3.2,10.5,4.2,11.6,4.2v1.5h-41v-1.5c1.3,0,5.7-1.3,11.6-4.2c2.7-1.3,3.5-2.1,3.5-4.9V4.8h-7c-5.2,0-7.4,0.7-8.5,2.8
			c-3.1,5.7-7.7,17.8-8.1,22.6h-1.5V2.1h61V30.2z"/>
		<path d="M846,108.8"/>
	</g>
</g>
</svg>
